<?xml version="1.0" encoding="UTF-8" standalone="no"?>
<!-- Created with Inkscape (http://www.inkscape.org/) -->

<svg
   xmlns:dc="http://purl.org/dc/elements/1.1/"
   xmlns:cc="http://creativecommons.org/ns#"
   xmlns:rdf="http://www.w3.org/1999/02/22-rdf-syntax-ns#"
   xmlns:svg="http://www.w3.org/2000/svg"
   xmlns="http://www.w3.org/2000/svg"
   xmlns:xlink="http://www.w3.org/1999/xlink"
   xmlns:sodipodi="http://sodipodi.sourceforge.net/DTD/sodipodi-0.dtd"
   xmlns:inkscape="http://www.inkscape.org/namespaces/inkscape"
   width="400mm"
   height="400mm"
   viewBox="0 0 400 400"
   version="1.1"
   id="svg8"
   inkscape:version="0.92.4 (5da689c313, 2019-01-14)"
   sodipodi:docname="drawingAnkimobile.svg"
   style="enable-background:new">
  <defs
     id="defs2">
    <linearGradient
       inkscape:collect="always"
       id="linearGradient5719">
      <stop
         style="stop-color:#878787;stop-opacity:1;"
         offset="0"
         id="stop5715" />
      <stop
         style="stop-color:#878787;stop-opacity:0;"
         offset="1"
         id="stop5717" />
    </linearGradient>
    <linearGradient
       inkscape:collect="always"
       id="linearGradient5711">
      <stop
         style="stop-color:#262626;stop-opacity:1;"
         offset="0"
         id="stop5707" />
      <stop
         style="stop-color:#262626;stop-opacity:0;"
         offset="1"
         id="stop5709" />
    </linearGradient>
    <linearGradient
       inkscape:collect="always"
       id="linearGradient5690">
      <stop
         style="stop-color:#66b6eb;stop-opacity:1;"
         offset="0"
         id="stop5686" />
      <stop
         style="stop-color:#66b6eb;stop-opacity:0;"
         offset="1"
         id="stop5688" />
    </linearGradient>
    <linearGradient
       inkscape:collect="always"
       id="linearGradient5644">
      <stop
         style="stop-color:#2896e1;stop-opacity:1;"
         offset="0"
         id="stop5640" />
      <stop
         style="stop-color:#2896e1;stop-opacity:0;"
         offset="1"
         id="stop5642" />
    </linearGradient>
    <linearGradient
       inkscape:collect="always"
       xlink:href="#linearGradient5644"
       id="linearGradient5646"
       x1="788.80115"
       y1="295.52289"
       x2="653.14746"
       y2="603.87195"
       gradientUnits="userSpaceOnUse" />
    <linearGradient
       inkscape:collect="always"
       xlink:href="#linearGradient5690"
       id="linearGradient5692"
       x1="784.0614"
       y1="180.08835"
       x2="694.22717"
       y2="422.01987"
       gradientUnits="userSpaceOnUse" />
    <linearGradient
       inkscape:collect="always"
       xlink:href="#linearGradient5711"
       id="linearGradient5713"
       x1="723.9826"
       y1="265.40524"
       x2="316.76666"
       y2="686.89136"
       gradientUnits="userSpaceOnUse" />
    <linearGradient
       inkscape:collect="always"
       xlink:href="#linearGradient5719"
       id="linearGradient5721"
       x1="19.861229"
       y1="31.133625"
       x2="11.373002"
       y2="130.55789"
       gradientUnits="userSpaceOnUse" />
  </defs>
  <sodipodi:namedview
     id="base"
     pagecolor="#ffffff"
     bordercolor="#666666"
     borderopacity="1.0"
     inkscape:pageopacity="0.0"
     inkscape:pageshadow="2"
     inkscape:zoom="0.7"
     inkscape:cx="861.71272"
     inkscape:cy="806.77751"
     inkscape:document-units="mm"
     inkscape:current-layer="layer2"
     showgrid="false"
     inkscape:window-width="2736"
     inkscape:window-height="1719"
     inkscape:window-x="-13"
     inkscape:window-y="-13"
     inkscape:window-maximized="1" />
  <metadata
     id="metadata5">
    <rdf:RDF>
      <cc:Work
         rdf:about="">
        <dc:format>image/svg+xml</dc:format>
        <dc:type
           rdf:resource="http://purl.org/dc/dcmitype/StillImage" />
        <dc:title></dc:title>
      </cc:Work>
    </rdf:RDF>
  </metadata>
  <g
     inkscape:label="Layer 1"
     inkscape:groupmode="layer"
     id="layer1"
     transform="translate(0,103)" />
  <g
     inkscape:groupmode="layer"
     id="layer2"
     inkscape:label="Layer 2"
     transform="translate(0,103)">
    <g
       id="g5494"
       transform="matrix(3.2865441,0,0,3.2865439,43.206736,-197.9098)">
      <path
         style="fill:#fafbfc;stroke-width:0.26458335"
         d="m -13.146556,89.732468 v -60.85417 h 60.85417 60.854166 v 60.85417 60.854172 h -60.854166 -60.85417 z"
         id="path5508"
         inkscape:connector-curvature="0" />
      <path
         style="opacity:1;fill:url(#linearGradient5646);fill-opacity:1;stroke-width:1.00000012"
         d="m 637.8418,225.26758 c -0.05,0.48758 -0.15635,2.95831 -0.19922,3.26367 -0.52549,3.74247 -1.49171,11.30469 -2.14649,16.80469 -0.20637,1.73347 -0.56623,3.16093 -0.8125,4.8125 -2.9121,19.5298 -8.5077,33.67057 -17.71289,43.61328 -11.93399,12.89015 -30.21463,22.79738 -80.4082,43.57812 -44.57716,18.45548 -70,31.54003 -70,36.02735 0,1.94258 6.89394,6.32613 19.50977,12.40625 10.88734,5.24708 24.77774,10.81011 62.49023,25.02148 25.30725,9.53665 48.16743,19.88867 58.46289,26.47461 7.52999,4.81689 16.64197,13.49571 20.53125,19.55664 8.77222,13.67032 12.93889,31.2548 18.01367,76.00977 1.15374,10.17502 4.81112,34.54649 5.34901,36.25658 13.3838,0.42765 52.01341,0.88276 60.17346,0.69165 -0.34857,-1.55815 19.93866,-25.34133 33.43261,-39.34667 24.45017,-25.37681 39.89553,-32.68724 66.0332,-31.25 12.69142,0.69785 22.94277,2.31955 42.48829,6.72266 7.14166,1.60883 13.55418,2.92578 14.25,2.92578 1.01414,0 1.26562,-28.25783 1.26562,-142.5 0,-11.79707 -0.0578,-10.46795 -0.0664,-21.44922 -0.002,-2.81082 -0.0149,-2.74687 -0.0176,-5.49024 -0.35405,-0.20877 -0.52751,-0.3414 -0.90625,-0.56054 -0.60571,0 -4.38253,-2.21458 -8.39454,-4.92188 -7.21567,-4.86914 -16.2379,-10.47283 -26.4707,-16.48828 -10.2328,-6.01544 -21.67669,-12.44272 -33.73242,-18.95898 -12.05573,-6.51627 -24.72373,-13.1206 -37.4082,-19.49219 -12.68447,-6.37159 -25.38489,-12.51036 -37.50391,-18.0918 -12.94273,-5.9608 -32.84941,-14.53948 -50.03125,-21.70508 -8.59092,-3.5828 -16.50065,-6.81121 -22.51758,-9.18359 -6.01693,-2.37238 -10.14168,-3.88875 -11.16211,-4.04297 -0.13167,-0.0199 -0.21061,-0.0171 -0.23633,0.01 -1.06281,-0.38762 -1.35477,-0.37917 -2.27343,-0.69336 z"
         transform="matrix(0.26458333,0,0,0.26458333,-121.24532,-0.18239131)"
         id="path5593"
         inkscape:connector-curvature="0"
         sodipodi:nodetypes="ccscssssssssccscsssccccssssssccc" />
      <path
         style="fill:url(#linearGradient5692);fill-opacity:1;stroke-width:1.00000012"
         d="m 650.45312,112.19922 c -0.5012,0.008 -0.88049,0.26338 -1.30468,0.71875 -3.94957,4.23977 -7.02827,29.91654 -9.06836,75.61328 -0.74859,16.76786 -1.67525,31.24804 -2.23828,36.73633 0.91866,0.31419 1.21062,0.30574 2.27343,0.69336 0.0257,-0.0269 0.10466,-0.0297 0.23633,-0.01 1.02043,0.15422 5.14518,1.67059 11.16211,4.04297 6.01693,2.37238 13.92666,5.60079 22.51758,9.18359 17.18184,7.1656 37.08852,15.74428 50.03125,21.70508 12.11902,5.58144 24.81944,11.72021 37.50391,18.0918 12.68447,6.37159 25.35247,12.97592 37.4082,19.49219 12.05573,6.51626 23.49962,12.94354 33.73242,18.95898 10.2328,6.01545 19.25503,11.61914 26.4707,16.48828 4.01201,2.7073 7.78883,4.92188 8.39454,4.92188 0.37874,0.21914 0.5522,0.35177 0.90625,0.56054 -0.057,-57.74346 -0.16303,-115.56054 -0.36133,-115.56054 -0.24473,0 -8.43552,2.04756 -18.20117,4.55078 -40.27203,10.32286 -61.22215,11.19906 -78.07032,3.26367 -15.49312,-7.29719 -29.41349,-20.62232 -65.09765,-62.31445 -26.69504,-31.18954 -44.04443,-49.51733 -51.98633,-54.91797 -2.29661,-1.56174 -3.47323,-2.23245 -4.3086,-2.21875 z"
         id="path5506"
         transform="matrix(0.26458333,0,0,0.26458333,-121.24532,-0.18239131)"
         inkscape:connector-curvature="0" />
      <path
         style="fill:url(#linearGradient5721);fill-opacity:1;stroke-width:0.26458335"
         d="m -13.146556,89.732468 v -60.85417 h 24.870835 c 13.678959,0 24.870834,0.05694 24.870834,0.126543 0,0.0696 -0.234217,1.587646 -0.52048,3.373438 -0.78382,4.889694 -1.56872,16.456004 -1.567921,23.104965 5.29e-4,4.179816 -0.7776,10.26763 -1.5758,12.328951 -0.744382,1.922339 -4.955138,4.05682 -20.809758,10.548711 -16.5541146,6.778308 -22.715427,11.519604 -24.000693,18.469185 -0.658027,3.558029 0.817311,7.631079 3.8958071,10.755379 3.8400032,3.89714 9.4683866,6.76461 23.8090529,12.12992 13.566714,5.07576 17.138574,6.85941 17.991805,8.98443 0.962012,2.39595 1.882315,9.1804 2.376728,17.52119 0.08626,1.45521 0.217228,3.03279 0.291037,3.50573 l 0.134202,0.8599 H 11.736268 -13.146556 Z"
         id="path5500"
         inkscape:connector-curvature="0"
         sodipodi:nodetypes="ccssscsssssssccccc" />
      <path
         style="fill:url(#linearGradient5713);fill-opacity:1;stroke-width:1.00000012"
         d="m 408.5625,159.97461 v 204.35742 c 0,193.78489 0.0905,204.38079 1.75,204.81445 0.9625,0.25172 43.06684,0.5084 93.56641,0.57227 87.01005,0.10991 91.7907,0.0255 91.29101,-1.63281 -0.29002,-0.9625 -1.22937,-11.42499 -2.08789,-23.25 -1.84219,-25.37371 -4.76928,-47.39576 -7.31445,-55.02735 -1.63075,-4.88972 -2.5032,-5.92294 -8.17774,-9.6875 -8.52226,-5.65379 -21.61372,-11.30584 -58.52734,-25.26953 -59.5017,-22.50833 -75.04012,-30.43977 -91.02344,-46.46875 -8.71217,-8.73702 -12.5634,-14.94476 -14.94336,-24.08203 -4.34374,-16.67675 0.6594,-31.79685 15.39844,-46.5332 15.10638,-15.10363 32.74021,-24.53932 88.06836,-47.125 48.21086,-19.68032 61.79835,-26.83585 65.0918,-34.28125 3.37751,-7.63542 7.8649,-45.86781 5.83008,-49.66992 -2.01906,-3.77263 -72.90814,-24.79117 -118.92188,-35.25977 -22.99782,-5.23224 -48.78864,-10.35827 -55.3418,-11 z m 394.41797,390.94531 c -2.55042,0.26626 -4.44691,0.86335 -5.91797,1.76758 -1.65,1.0142 -6.52428,5.28736 -10.83203,9.49609 l -7.83203,7.65235 h 45.08203 45.08203 v -3.75586 -3.75586 l -18.75,-4.23438 c -25.63887,-5.79038 -39.18076,-7.96868 -46.83203,-7.16992 z"
         id="path5705"
         transform="matrix(0.26458333,0,0,0.26458333,-121.24532,-0.18239131)"
         inkscape:connector-curvature="0" />
      <path
         style="fill:#636363;stroke-width:1.00000012"
         d="m 868.5625,109.83594 -73.25,0.0586 c -57.07085,0.0458 -72.83572,0.32191 -71.37695,1.25 1.02977,0.65516 9.84519,10.41641 19.59179,21.69141 27.71134,32.05687 36.23276,40.98488 47.03516,49.28711 2.63633,2.02616 4.64736,2.69285 8.15039,2.70117 6.99657,0.0167 25.47005,-3.43078 42.84961,-7.9961 8.52503,-2.23937 18.08748,-4.60549 21.25,-5.25976 l 5.75,-1.18945 v -30.27149 z"
         id="path5498"
         transform="matrix(0.26458333,0,0,0.26458333,-121.24532,-0.18239131)"
         inkscape:connector-curvature="0" />
    </g>
  </g>
</svg>
